<?xml version="1.0" encoding="iso-8859-1"?>
<!-- Generator: Adobe Illustrator 19.0.0, SVG Export Plug-In . SVG Version: 6.00 Build 0)  -->
<svg version="1.1" id="Capa_1" xmlns="http://www.w3.org/2000/svg" xmlns:xlink="http://www.w3.org/1999/xlink" x="0px" y="0px"
	 viewBox="0 0 384 384" style="enable-background:new 0 0 384 384;" xml:space="preserve">
<path style="fill:#4DD0E1;" d="M368,96v240c0,17.68-14.32,32-32,32h-40V248H88v120H48c-17.68,0-32-14.32-32-32V48
	c0-17.68,14.32-32,32-32h40v128h152V16h48L368,96z"/>
<rect x="88" y="248" style="fill:#FF7043;" width="208" height="120"/>
<g>
	<path style="fill:#012E52;" d="M299.312,4.688C296.312,1.688,292.24,0,288,0H168c-8.832,0-16,7.168-16,16s7.168,16,16,16h56v96H104
		V16c0-8.832-7.168-16-16-16H48C21.528,0,0,21.528,0,48v288c0,26.472,21.528,48,48,48h40h208h40c26.472,0,48-21.528,48-48V96
		c0-4.24-1.688-8.312-4.688-11.312L299.312,4.688z M280,352H104v-88h176V352z M352,336c0,8.824-7.176,16-16,16h-24V248
		c0-8.832-7.168-16-16-16H88c-8.832,0-16,7.168-16,16v104H48c-8.824,0-16-7.176-16-16V48c0-8.824,7.176-16,16-16h24v112
		c0,8.832,7.168,16,16,16h152c8.832,0,16-7.168,16-16V32h25.368L352,102.632V336z"/>
	<path style="fill:#012E52;" d="M136,104c8.832,0,16-7.168,16-16V72c0-8.832-7.168-16-16-16s-16,7.168-16,16v16
		C120,96.832,127.168,104,136,104z"/>
</g>
<g>
</g>
<g>
</g>
<g>
</g>
<g>
</g>
<g>
</g>
<g>
</g>
<g>
</g>
<g>
</g>
<g>
</g>
<g>
</g>
<g>
</g>
<g>
</g>
<g>
</g>
<g>
</g>
<g>
</g>
</svg>
